/* XPM */
static char *_44e47aa153548e48aa5ebfd5d9d5da4tpK71JNiPeZq4Rm1[] = {
/* columns rows colors chars-per-pixel */
"55 50 7 1 ",
"  c None",
". c #25131A",
"X c #523B40",
"o c #8A961F",
"O c #CCF61F",
"+ c #96C641",
"@ c #BBC44E",
/* pixels */
"                                                       ",
"                                                       ",
"                                                       ",
"                                                       ",
"                                                       ",
"                                                       ",
"                                                       ",
"                                                       ",
"                                                       ",
"                                                       ",
"                     ..  ..  ..                        ",
"                     ..  ..  ..                        ",
"                     ....XX....                        ",
"                     ....XX....                        ",
"                   ..OOXXOOXXOO..                      ",
"                   ..OOXXOOXXOO..                      ",
"               ..  ..XX@@OO@@XX..  ..                  ",
"               ..  ..XX@@OO@@XX..  ..                  ",
"               ....OOXXOOOOOOXXOO....                  ",
"               ....OOXXOOOOOOXXOO....                  ",
"               ..XXOO@@OOOOOO@@OOXX..                  ",
"               ..XXOO@@OOOOOO@@OOXX..                  ",
"               ..@@OOOOOOOOOOOOOO@@..                  ",
"               ..@@OOOOOOOOOOOOOO@@..                  ",
"               ..@@OOXXOOOOOOXXOO@@..                  ",
"               ..@@OOXXOOOOOOXXOO@@..                  ",
"               ..++OOXXXXOOXXXXOO++..                  ",
"               ..++OOXXXXOOXXXXOO++..                  ",
"               ..XX++@@@@XX@@@@++XX..                  ",
"               ..XX++@@@@XX@@@@++XX..                  ",
"                 ..XX++@@XX@@++XX..                    ",
"                 ..XX++@@XX@@++XX..                    ",
"                   ..oo++++++oo..                      ",
"                   ..oo++++++oo..                      ",
"                   ..XXooXXooXX..                      ",
"                   ..XXooXXooXX..                      ",
"                     ..........                        ",
"                     ..........                        ",
"                                                       ",
"                                                       ",
"                                                       ",
"                                                       ",
"                                                       ",
"                                                       ",
"                                                       ",
"                                                       ",
"                                                       ",
"                                                       ",
"                                                       ",
"                                                       "
};
