/* XPM */
static char *exit1644320724[] = {
/* columns rows colors chars-per-pixel */
"60 60 221 2 ",
"   c None",
".  c #1B000F",
"X  c #1D0215",
"o  c #1B1219",
"O  c #210C16",
"+  c #230C19",
"@  c #21041A",
"#  c #25131A",
"$  c #2A141C",
"%  c #291C1F",
"&  c #36131C",
"*  c #300C1B",
"=  c #2D281D",
"-  c #312F1E",
";  c #2A1721",
":  c #2C1A24",
">  c #2F1B29",
",  c #391726",
"<  c #3D1628",
"1  c #311C2C",
"2  c #331723",
"3  c #351F31",
"4  c #322F29",
"5  c #38272B",
"6  c #382135",
"7  c #3D253B",
"8  c #3B2636",
"9  c #393730",
"0  c #471A2E",
"q  c #4F1A2F",
"w  c #5A1D22",
"e  c #4D1B33",
"r  c #4C1A34",
"t  c #571D39",
"y  c #5B1E3C",
"u  c #511D36",
"i  c #641D23",
"p  c #681E3C",
"a  c #42253C",
"s  c #452D3D",
"d  c #452C34",
"f  c #56293C",
"g  c #453136",
"h  c #4B353D",
"j  c #4B3B3C",
"k  c #47363C",
"l  c #513A3F",
"z  c #59333A",
"x  c #452A2F",
"c  c #7F2629",
"v  c #6A343D",
"b  c #722F36",
"n  c #4E181F",
"m  c #3E4232",
"M  c #444B3C",
"N  c #484A3D",
"B  c #595839",
"V  c #485530",
"C  c #6D563E",
"Z  c #53662B",
"A  c #5A732A",
"S  c #5E753F",
"D  c #616C35",
"F  c #647E32",
"G  c #667B26",
"H  c #592843",
"J  c #4E3C42",
"K  c #473A45",
"L  c #523B40",
"P  c #5D3B40",
"I  c #632242",
"U  c #6C2346",
"Y  c #6E2549",
"T  c #692849",
"R  c #74264C",
"E  c #73294E",
"W  c #752848",
"Q  c #683C40",
"!  c #783A43",
"~  c #7E2953",
"^  c #792751",
"/  c #4C4A46",
"(  c #55474A",
")  c #4C5642",
"_  c #545D49",
"`  c #5D5C5C",
"'  c #575455",
"]  c #574F50",
"[  c #645E5A",
"{  c #5C6B53",
"}  c #596650",
"|  c #59694F",
" . c #6A635B",
".. c #60744E",
"X. c #5F6060",
"o. c #656463",
"O. c #7C746B",
"+. c #736C64",
"@. c #8F1933",
"#. c #B2173D",
"$. c #B4183D",
"%. c #85262A",
"&. c #932B2D",
"*. c #992933",
"=. c #9A333D",
"-. c #863037",
";. c #A43032",
":. c #A8343B",
">. c #B33536",
",. c #B9393A",
"<. c #A22F31",
"1. c #C53A3C",
"2. c #D03D3E",
"3. c #BC1F4A",
"4. c #B61B43",
"5. c #8A2349",
"6. c #9B244D",
"7. c #8C3D41",
"8. c #833D41",
"9. c #933E41",
"0. c #973A41",
"q. c #802954",
"w. c #8A2853",
"e. c #8E2752",
"r. c #962651",
"t. c #992651",
"y. c #883653",
"u. c #943C52",
"i. c #A5234F",
"p. c #AA234D",
"a. c #B3214D",
"s. c #B12548",
"d. c #A23F42",
"f. c #AA3F42",
"g. c #A7394B",
"h. c #B9394A",
"j. c #A22F50",
"k. c #CE1A46",
"l. c #C21D49",
"z. c #D01946",
"x. c #D01746",
"c. c #C72848",
"v. c #CF3E42",
"b. c #C73948",
"n. c #DA3B45",
"m. c #E33D44",
"M. c #934352",
"N. c #9B4B51",
"B. c #974851",
"V. c #8E424B",
"C. c #AA434E",
"Z. c #BD4142",
"A. c #B64042",
"S. c #A34550",
"D. c #867E76",
"F. c #C64143",
"G. c #CB4143",
"H. c #DB4143",
"J. c #D44243",
"K. c #E44344",
"L. c #E94444",
"P. c #7F971D",
"I. c #6D8B35",
"U. c #688534",
"Y. c #779838",
"T. c #728235",
"R. c #7FA43F",
"E. c #76954C",
"W. c #6D8750",
"Q. c #8A961F",
"!. c #859B1E",
"~. c #94A51F",
"^. c #9BB61E",
"/. c #8D9823",
"(. c #948925",
"). c #97A22E",
"_. c #96A820",
"`. c #80A53F",
"'. c #84AC3C",
"]. c #8EB23A",
"[. c #98AF34",
"{. c #A3AF3B",
"}. c #A09C26",
"|. c #A7C41F",
" X c #B5D91E",
".X c #A1C736",
"XX c #ADC82A",
"oX c #BEE520",
"OX c #9AC038",
"+X c #CCF61F",
"@X c #C0E71E",
"#X c #CBF520",
"$X c #C3EC26",
"%X c #939D51",
"&X c #839644",
"*X c #96B547",
"=X c #87AF48",
"-X c #AAB34F",
";X c #ADB943",
":X c #B2BB47",
">X c #8C857B",
",X c #95C442",
"<X c #9CC643",
"1X c #A7C447",
"2X c #BAC44D",
"3X c #B4C34B",
"4X c #BFD047",
"5X c #9C9589",
"6X c #928C82",
"7X c #A19B8E",
"8X c #A69F91",
"9X c #AAA496",
"0X c #B0A99A",
"qX c #BBB5A5",
"wX c #B6AFA1",
"eX c #C3BBAB",
"rX c #CCC5B3",
"tX c #D3CBB9",
"yX c #DDD5C2",
"uX c #E3DBC8",
"iX c #E8E0CC",
/* pixels */
"                                                                                                                        ",
"                                                                                                                        ",
"                                  # #                                         # #                                       ",
"                                  [  .                                        [  .                                      ",
"                                # eXuX4 #       # $               #         o rXuX5 #                                   ",
"                                O 5XwX5 #       8X5X            >X9X .      @ 5XwX% #                                   ",
"                                # ] X.O .   # O yXtX.         # 8XiXO.#     . ' ` $ #                                   ",
"                        # #     # j ] rXwX+ 1 6 >XD.3 1 # # ; 8 o.6X( 6 # 6XrXD.( # #     #                             ",
"                        N j     $ g L uXeX+ 6 7 ` ' 7 6 % $ : 7 ( X.K 7 $ 6XyX>XL ; ;   k N                             ",
"                      O rXuX# 5 L s a X.' 7 7 7 J J L P L L L L l l a 7 7 / X.K 7 L g # qXuXj #                         ",
"                      O 9XqX1 d L s 7 ' ] 7 a s L Q d.b g g z S.-./ K a 7 K ' K 7 L g > 5XeX9 $                         ",
"                      O ' ` 7 s L s 7 J h 7 h L L 8.L.;.# O i L.h.L l L 7 K L H a L h 7 ' o.; #                         ",
"                  # 6XeXO.( 7 s L s 7 L L 7 s L F.,.&.}.|.Y.T.&.>.F.C L 7 s l s 7 ( h 8 ( ( qX0XX                       ",
"                  # 7XuXD.L 7 s L s a L L 7 h L H.2.o ^.+X].Y.O :.L.7.z 7 s l s a l h 7 h L yXrXX                       ",
"            #     # / +.( 7 J l l F.K.P N z Z.L.( v # U.`.`.Y.+ x z J.H.L L j F.K.L l l s 7 o.` #     # #               ",
"          +.O.    : K ` K a 7.! l F.L.V.8.l Z.L.9.-.q D I.Y.I.q b V.J.L.L Q V.J.L.P v 7.T 7 ` ( : ;   O.O.              ",
"        + 9XuX .; 7 s L 7 f L.Z.l F.L.L.G.L F.L.L.H.~ y + + < ~ h.L.L.K.L C.L.L.L.l 0.L.=.3 L L 7 1 . yXtX. #           ",
"        # D.wX] 6 7 s L s f L.1.5 &.;.L.G.l Z.L.L.n.3.5.I I U a.c.L.L.L.j d.m.1.<.x =.L.0.7 L L 7 3 > 8X7XO #           ",
"        # / [ K 7 7 h L 7 f L.,.X O * L.G.j v.L.L.m.k.p.~ ~ r.x.n.L.L.L.J d.L.%.X O &.L.=.7 l J 7 7 7 ` ` O #           ",
"        # g N l h 7 s j F.J.i /.oX].R.i *.n.f.C K.L.K.K.H.K.n.m.L.L.9.8.H.,.i |.@XY.T.i >.n.Q L 3 K l ( j # #           ",
"        # 8 l l l 7 z ! v.J.# /.$XOX`.% %.H.f.v H.H.J.n.H.n.H.H.n.K.9.! J.>.O XX$X=XI.+ >.H.! Q a s L h h #             ",
"          # # h l 7 :.L.9.N # Z R.=X`.= 5 l h.L.w.R o o o o o o y q.H.K.J d # I.=XY.I.# g L L.v.7 K l 2 #               ",
"            # 8 d a d.L.h.:.y B F U.F f b f.,.>.p H M M M M M M l y :.:.A.-.y D F F D y 9.f.L.v.7 d d %                 ",
"              # $ 3 g.L.L.L.q.p o O # ~ j.L.<.# + 9 { { { { { { ) @ # w L.b.q.u O # r ~ b.L.L.v.6 1 #                   ",
"              # w v.f.7.J.K.l.p.R R R a.s.c ] _ '.].-X-X-X-X-X-X*X'..._ %.*.l.5.Y W 6.s.H.K.9.d.v.-.#                   ",
"              # w L.h.v G.K.k.4.~ q.w.k.#.= B { ,X<X2X2X2X2X2X2X1X,XW...% @.k.6.w.~ i.k.n.K.v 9.K.<.#                   ",
"                  $ <.K.%.$ # f q.3.k.& 9 { =X,X2X4X+X+X+X~././.{.2X<X,X{ ) + #.k.q.U $ # & K.2.#                       ",
"                  &.;.1.(.P.Z B U 4.k.& V E.*X1X;X.X+X+X+X~.Q./.).;X;X1XE.S # $.k.U C !.G Z ,.>.&.c                     ",
"              # w L.,.X  X#X`.I.# #.k.& A ,X3X2X/.^.+X+X+X~./.Q.Q.Q.;X2X,XR.# #.k.* P.+X.XR.- c L.;.#                   ",
"              # w L.,.O ]..X`.U.# #.k.& A ,X1X2X/.~.|.|.|./.Q.Q.Q.Q.;X2X,XY.o #.k.$ G .X].R.- c L.;.#                   ",
"              # w L.>.+ I.`.`.U.o #.k.& A <X3X2X/./.Q.Q.Q.Q.Q.Q.Q.Q.3X3X,XY.# #.k.* Z R.=XR.- c L.;.#                   ",
"              # : v ! q.x - - f ^ 3.k.& 9 ..=X<X:X:XQ.Q.Q.Q.Q.Q.{.2X<X,X..B # $.x.^ v - - - ^ E v x #                   ",
"              # : h W t.p 0 0 p t.l.z.u h _ E.=X3X3X).).).).).).;X3X*X=X_ / 0 $.z.6.5.0 0 0 r.w.h 5 #                   ",
"                  # @.x.r.q.q.i.z.z.k.q.Y # ) { ,X<X2X2X2X2X2X2X1X,XW.{ + t q.a.z.z.3.q.~ ~ k.$.o                       ",
"                  # -.h.s.p.q.i.z.z.z.a.6.p l N U.Y.%X%X%X%X%X%X&XI.Z / I 5.a.l.z.z.c.q.i.p.h.g.#                       ",
"                  # v N.c.k.q.i.z.z.z.z.3.q.f O # 9 { | { { { { M # # ; q.i.z.z.z.z.3.~ 3.x.N.V.#                       ",
"                  # 6 H B.S.~ i.x.z.z.z.3.q.^ ^ W Y 4 4 4 4 4 4 z ^ ^ ^ ~ i.z.z.z.z.3.q.u.S.z d #                       ",
"                  # > 7 V.B.q.t.c.k.z.z.3.~ w.w.q.R , , , , , , I ~ w.w.~ i.z.k.z.c.a.q.u.B.H 3 #                       ",
"                  # 1 7 E ~ q.u.B.h.z.z.3.q.3.z.w.q.q.~ q.~ ~ ~ q.q.l.k.q.i.x.k.z.N.M.q.~ ~ 7 6 #                       ",
"                  # > 7 T T ~ y.u.h.h.z.3.q.a.z.w.w.p.p.p.p.p.p.r.~ l.k.q.i.x.c.h.M.y.~ E T 7 6 #                       ",
"                  # 1 7 7 a q.q.~ B.N.k.a.w.3.z.y.t.z.z.k.z.z.z.a.~ l.k.q.p.z.g.N.w.~ q.H 7 7 3 #                       ",
"                  # ; : 7 a q.E H ^ y.C.g.q.u.C.w.t.z.z.z.z.z.k.p.~ g.C.q.u.C.u.y.H T q.H a > > #                       ",
"                  # # # 6 a ~ Y 7 Y ~ B.M.~ M.N.q.r.z.z.k.z.k.k.a.~ B.B.q.y.N.y.^ 7 H q.H 7 + $ #                       ",
"                      # # 2 ~ Y 7 1 $ ~ ~ ~ ~ q.q.y.N.N.N.N.N.N.u.q.q.q.q.q.q.u ; 7 H q.t # $ +                         ",
"                      # # : E I 7 > $ ~ ^ Y Y Y ~ y.M.M.M.M.M.M.y.q.E E T R q.r # 7 H Y r # # #                         ",
"                        # # 7 7 7 : $ ~ Y # 3 7 ~ ~ q.~ q.~ q.q.~ q.H 7 $ t q.r # 7 7 7 > $                             ",
"                        # ; 7 8 > ; # ~ Y + 3 7 t I ~ Y t t y q.Y t 7 7 $ t q.r # > 3 7 > #                             ",
"                        # # 7 6 # # $ ~ R # 3 7 $ 0 q.H # $ < q.I # 6 7 + f ~ r # # > 7 > $                             ",
"                            # ;   # # ~ Y # $ # # 0 ~ y $ $ < ~ I # $ # # t ~ u #     #                                 ",
"                            # #   # $ E I # # $ # 0 ~ y # # < ~ I # # $ # u E r #     #                                 ",
"                                  # # 7 6 #     + 0 q.f # # < ~ y #     # > 7 > #                                       ",
"                                  # $ 7 6 $     $ < T u # # 2 T u $     # > 7 > #                                       ",
"                                  # # 7 6 #     # : 7 1 # # ; 7 3 #     # > 7 > #                                       ",
"                                      ; ;           ; ;       ; ;         ; ;                                           ",
"                                      # #           #         #             #                                           ",
"                                                                                                                        ",
"                                                                                                                        ",
"                                                                                                                        ",
"                                                                                                                        ",
"                                                                                                                        "
};
