/* XPM */
static char *b46137b4354340c7aa9515e9fa04b2d9msMERRk30Ap4g22P[] = {
/* columns rows colors chars-per-pixel */
"44 41 207 2 ",
"   c None",
".  c #000800",
"X  c #000013",
"o  c #001419",
"O  c #000A2C",
"+  c #00002F",
"@  c #00142B",
"#  c #001726",
"$  c #000031",
"%  c #000539",
"&  c #000C37",
"*  c #02193C",
"=  c #001233",
"-  c #0B1945",
";  c #0E1948",
":  c #1C1D45",
">  c #1C1859",
",  c #1A1856",
"<  c #251A4B",
"1  c #2C224C",
"2  c #232C48",
"3  c #2E364E",
"4  c #343B51",
"5  c #1A0960",
"6  c #271868",
"7  c #29196B",
"8  c #251866",
"9  c #2C0279",
"0  c #33177B",
"q  c #5A1C79",
"w  c #5B366C",
"e  c #643776",
"r  c #703D7F",
"t  c #3E4557",
"y  c #444A5B",
"u  c #4D5161",
"i  c #565A68",
"p  c #5A5E6B",
"a  c #72427F",
"s  c #5C606D",
"d  c #71757E",
"f  c #676979",
"g  c #361781",
"h  c #381785",
"j  c #3D168D",
"k  c #3B009F",
"l  c #3B098D",
"z  c #411E8F",
"x  c #44139E",
"c  c #48159F",
"v  c #722891",
"b  c #4815A0",
"n  c #4E14AA",
"m  c #4B19A0",
"M  c #4E00B9",
"N  c #5100B7",
"B  c #5314B4",
"V  c #5713BB",
"C  c #5619A6",
"Z  c #7F17BC",
"A  c #744381",
"S  c #7C4787",
"D  c #7A7D85",
"F  c #757881",
"G  c #6847BB",
"H  c #5B08C3",
"J  c #5B12C2",
"K  c #5E10C8",
"L  c #6111CC",
"P  c #6A0FDE",
"I  c #660FD7",
"U  c #6811D9",
"Y  c #6F25DE",
"T  c #6E00E7",
"R  c #720DED",
"E  c #6F1EE3",
"W  c #7500F5",
"Q  c #750AF4",
"!  c #780CF6",
"~  c #7700F9",
"^  c #790BF9",
"/  c #770AF8",
"(  c #7A17F3",
")  c #7517E2",
"_  c #7A27F3",
"`  c #714FC5",
"'  c #9127B0",
"]  c #8F33AA",
"[  c #81488C",
"{  c #93539B",
"}  c #9240A7",
"|  c #9D59A5",
" . c #9B55A5",
".. c #A65DAC",
"X. c #AE5BBA",
"o. c #8274B7",
"O. c #AF62B5",
"+. c #B667BC",
"@. c #AE35CD",
"#. c #8200F7",
"$. c #9715F8",
"%. c #8616F7",
"&. c #8223F1",
"*. c #9822F7",
"=. c #9237F7",
"-. c #BF2DFA",
";. c #B731F9",
":. c #B532EF",
">. c #C02DFA",
",. c #D73DFB",
"<. c #C737FA",
"1. c #B94ECF",
"2. c #866CD0",
"3. c #BE68C5",
"4. c #8141F5",
"5. c #8B58F5",
"6. c #8D58F9",
"7. c #8D55F6",
"8. c #B344F8",
"9. c #AF56F8",
"0. c #956AFA",
"q. c #C141DF",
"w. c #C36EC8",
"e. c #C26DC6",
"r. c #C971CE",
"t. c #C866DC",
"y. c #D678D9",
"u. c #DA49FC",
"i. c #DB58F4",
"p. c #C94EF6",
"a. c #E25CFB",
"s. c #C969F7",
"d. c #C765F6",
"f. c #D566FB",
"g. c #DC6BFB",
"h. c #DA66F5",
"j. c #DD76F3",
"k. c #DE78F6",
"l. c #DC71E6",
"z. c #E66BF9",
"x. c #E466F9",
"c. c #EE7DF6",
"v. c #EF7EF9",
"b. c #E577F8",
"n. c #E175EA",
"m. c #85888E",
"M. c #8A8C93",
"N. c #93959C",
"B. c #A9A9B7",
"V. c #B7B8BF",
"C. c #A2A4A9",
"Z. c #BCBEC1",
"A. c #BB85FA",
"S. c #BEACFB",
"D. c #BFB3F0",
"F. c #DF8BFC",
"G. c #E681E9",
"H. c #EC84EE",
"J. c #ED83F3",
"K. c #E589FB",
"L. c #F285F5",
"P. c #F489F6",
"I. c #F181F8",
"U. c #F68AF8",
"Y. c #F494F7",
"T. c #F59AF7",
"R. c #F092F8",
"E. c #C6B7FC",
"W. c #E8A7FA",
"Q. c #F5A3F7",
"!. c #F6B4F8",
"~. c #F6BCF9",
"^. c #ECB4FD",
"/. c #C6C8CB",
"(. c #C9CCCE",
"). c #CECFD5",
"_. c #CFD1D3",
"`. c #D1D3D5",
"'. c #DADCDD",
"]. c #D7D9DB",
"[. c #DCDFE0",
"{. c #D4CBFC",
"}. c #D5C7FD",
"|. c #CEC3F9",
" X c #EECBFD",
".X c #E2CFFC",
"XX c #F9CDFB",
"oX c #F7C5FA",
"OX c #FAD4FB",
"+X c #F9DAFB",
"@X c #E5D3E8",
"#X c #DEE1E2",
"$X c #E1E3E4",
"%X c #E7E9EA",
"&X c #EBEBED",
"*X c #E5E7E9",
"=X c #EAE5FD",
"-X c #E9E6FD",
";X c #F5E4FD",
":X c #F7E9FE",
">X c #FAECFD",
",X c #FBE4FC",
"<X c #F4F6F6",
"1X c #F6F5FE",
"2X c #FAF1FD",
"3X c #F7F8F9",
"4X c #FDFEFE",
/* pixels */
"                                                                                        ",
"                                                                                        ",
"                                                                                        ",
"                                                                                        ",
"                                                                                        ",
"                          : 2               - -                                         ",
"                        e +.3.{           7 V K n                                       ",
"                      S O.H.P.y.{       g B R ^ J *                                     ",
"                    O | L.P.P.P.y.[   o c Q / / L 0                                     ",
"                    O | H.P.P.P.P.n.[ < C ! / / Q I 7                                   ",
"                      a ..H.U.P.I.x.q.@.:.:.%.~ ! P 8                                   ",
"                        e h.L.P.J.z.z.z.a.u.;.;.*.R V g                                 ",
"                      q ] i.v.P.L.P.L.P.c.i.,.,.-.$.! j                                 ",
"                    @ ] i.I.P.L.P.P.T.T.T.R.b.g.g.d.&.b >                               ",
"                    &  .J.P.P.U.L.T.+X>X>X>X:X:X:X.X6.T n *                             ",
"                    ' t.P.P.P.L.T.+X4X4X4X4X4X4X4X1X{.0.N #                             ",
"                  < 1.c.P.P.P.Q.OX4X].(.(.`.3X4X4X3X).2.N c                             ",
"                  < e.U.P.P.P.XX3X$XD s D N.'.3X<X`.s f G J ,                           ",
"                  1 w.P.P.P.P.XX$Xd 3 V.<X$XM.].`.i u `.Z.5 -                           ",
"                  1 w.P.P.P.P.XX[.y * (.4X&Xd `./.% u #XZ.= *                           ",
"                  1 r.U.P.P.P.OX[.y % N.V.B.p `./.% 4 C.m.= *                           ",
"                  1 e.L.P.P.P.~.@XN.y $ + 3 M.$X].m.2 $ 9 h ;                           ",
"                  < @.h.P.P.P.P.!.&XN.p s m.%X4X4X[.D s G K >                           ",
"                    q X.P.P.P.P.!.2X&X%X%X&X3X4X4X4X&X*XB.9                             ",
"                    o } z.U.P.P.T.~.^.:X4X4X4X4X4X4X4X}.` #                             ",
"                      v 1.J.P.P.P.I.z.W. X X X}.}.}.|.2.x                               ",
"                        v G.Y.P.P.P.L.z.z.K.F.A.0._ Y z                                 ",
"                        [ H.P.P.P.J.P.P.~.1X2X1XE.E j                                   ",
"                      { y.L.P.P.b.9.K.oX2X4X4X4X{.( I j                                 ",
"                    X | P.P.P.P.k.=.j.+X4X4X4X4X-XS.4.l                                 ",
"                    [ 3.P.P.P.J.d.8.W.,X4X4X3X4X3X-X5.N h                               ",
"                  1 e.L.P.P.P.s.*.f.;X4X4X4X4X4X4X-X5.Q B *                             ",
"                  1 w.U.P.P.P.d.$.g.,X4X4X4X4X4X4X=X6.W B *                             ",
"                  1 w.Y.P.P.s.8.p.K.,X4X4X4X4X4X4X=X6.~ B *                             ",
"                    ..t.s.s.8.-.i.R.XX2X4X4X4X4X-XD.` H b                               ",
"                      c ) *.<.u.z.L.U.oX:X;X:X=XS.E 8 -                                 ",
"                        v p.u.x.I.P.H.n.f.f.f.9.4.) 7                                   ",
"                        r l.c.J.U.H...v Z $.$.#.~ P 7                                   ",
"                        a G.U.I.U.H.A . j / / / P n                                     ",
"                        a G.U.P.H.r.A # b / ! ! J *                                     ",
"                        A G.U.U.y.w   # c Q ! ! J ;                                     "
};
