/* XPM */
static char *_5ae05e9ae2946fbffde92a90640ae6bRTDzgOgVRoWMOXRx[] = {
/* columns rows colors chars-per-pixel */
"60 50 157 2 ",
"   c None",
".  c #0E0006",
"X  c #120009",
"o  c #0B0918",
"O  c #13061A",
"+  c #1C0E1A",
"@  c #001317",
"#  c #0E1216",
"$  c #0A1218",
"%  c #051318",
"&  c #131318",
"*  c #1C1319",
"=  c #1B1217",
"-  c #201217",
";  c #25131A",
":  c #2E131C",
">  c #2D1A1A",
",  c #34141C",
"<  c #3E131E",
"1  c #341D1A",
"2  c #2D1B21",
"3  c #331522",
"4  c #331E2E",
"5  c #3F1829",
"6  c #35043B",
"7  c #300933",
"8  c #332226",
"9  c #362033",
"0  c #3D253B",
"q  c #392033",
"w  c #47131F",
"e  c #4D1A1F",
"r  c #45291A",
"t  c #5F3A1A",
"y  c #663E1B",
"u  c #4A1626",
"i  c #5F1425",
"p  c #4C1B32",
"a  c #511C35",
"s  c #551B39",
"d  c #601425",
"f  c #711529",
"g  c #7B152D",
"h  c #7B1A2F",
"j  c #701F3A",
"k  c #412023",
"l  c #402A35",
"z  c #542E35",
"x  c #473237",
"c  c #4B353D",
"v  c #6A2024",
"b  c #66362D",
"n  c #6D2234",
"m  c #70213B",
"M  c #523B40",
"N  c #682345",
"B  c #75264D",
"V  c #7A264D",
"C  c #76284C",
"Z  c #7E2654",
"A  c #7D2953",
"S  c #614D4C",
"D  c #675351",
"F  c #6F5A58",
"G  c #79635F",
"H  c #7A6360",
"J  c #83152E",
"K  c #8B1531",
"L  c #8B1B37",
"P  c #961634",
"I  c #9E1636",
"U  c #A11737",
"Y  c #A71739",
"T  c #AA173A",
"R  c #A9193C",
"E  c #B4173D",
"W  c #B6183E",
"Q  c #BB183F",
"!  c #86282A",
"~  c #982B2F",
"^  c #86223F",
"/  c #AF223A",
"(  c #AF3335",
")  c #BD3738",
"_  c #B63536",
"`  c #C93B3B",
"'  c #C5393A",
"]  c #9E641C",
"[  c #A96B1C",
"{  c #A76A1B",
"}  c #BB771D",
"|  c #9B4F28",
" . c #9E5626",
".. c #A74F2C",
"X. c #B85631",
"o. c #A56820",
"O. c #B46A23",
"+. c #BF7521",
"@. c #E3573E",
"#. c #E3593E",
"$. c #D57E27",
"%. c #D26435",
"&. c #D16C31",
"*. c #DD6238",
"=. c #DD6936",
"-. c #E06339",
";. c #BF1840",
":. c #BF1F4B",
">. c #B31F4A",
",. c #8D264E",
"<. c #822653",
"1. c #8E2753",
"2. c #812954",
"3. c #892853",
"4. c #912752",
"5. c #992551",
"6. c #AF224D",
"7. c #B5214C",
"8. c #D00646",
"9. c #D00E46",
"0. c #CE1746",
"q. c #C61843",
"w. c #CC1A46",
"e. c #C21D49",
"r. c #C91C48",
"t. c #D01746",
"y. c #D01946",
"u. c #D62746",
"i. c #D62A45",
"p. c #D92E45",
"a. c #DC3345",
"s. c #E83D44",
"d. c #E53B43",
"f. c #CE4245",
"g. c #DF4142",
"h. c #D04D44",
"j. c #E64344",
"k. c #E84444",
"l. c #E64C42",
"z. c #7D8834",
"x. c #8BA132",
"c. c #BEB83B",
"v. c #CA801E",
"b. c #D1851E",
"n. c #D38321",
"m. c #B5CD37",
"M. c #B8D037",
"N. c #B7D236",
"B. c #CCF61F",
"V. c #CCF81E",
"C. c #CDDA2C",
"Z. c #CBF420",
"A. c #A98C87",
"S. c #A48883",
"D. c #D5B2AB",
"F. c #DFBBB3",
"G. c #E1BCB4",
/* pixels */
"                                                                                                                        ",
"                                                                                                                        ",
"                    ; ;                       ; ; ; 2 ; ; ; ; ; ;                     ; ; ;                             ",
"                    ; ;                       ; ; ; ; ; ; ; ; ; ;                     ; ; ;                             ",
"              ; ; F A.A.S ; ; ; ; ; ; ; ; ; ! ( ( ( ( ( ( ( ( ( ( $ ; ; ; ; ; ; ; ; . S.A.S.. ;                         ",
"              ; ; G G.G.D ; ; ; ; ; ; ; ; ; ~ k.k.k.k.k.k.k.k.k.s.$ ; ; ; ; ; ; ; ; X D.G.D.. ;                         ",
"              ; ; G G.G.D ; ; ; ; ; ; ; ; ; ~ s.k.k.k.k.k.k.s.s.d.$ ; ; ; ; ; ; ; ; . D.G.D.X ;                         ",
"              ; ; > 8 1 c c M M M M c M l l x.Z.Z.h.y.y.y.8.C.Z.Z.6 0 c M c M M M M M 8 2 > ; ;                         ",
"              ; ; ; ; ; c c M M M M M M 0 0 x.V.V.h.y.y.y.8.C.Z.B.6 0 c M M M M M M M 2 ; ; ; ;                         ",
"              ; ; u J J z x c x x x x x 9 7 x.M.N.f.y.y.y.9.c.M.m.7 4 l x x x x x x x h g g ; ;                         ",
"              ; ; f t.y.d ; ; ; ; ; - ; ; ; s 2.A w.y.y.y.y.5.2.Z - ; ; ; ; ; ; ; ; & q.y.q.& ;                         ",
"              ; ; f y.y.i - ; ; ; * $ $ O O s 2.A w.y.y.y.y.5.2.Z o O # $ $ ; ; ; - $ q.y.q.& ;                         ",
"              ; ; f y.y.,.<.V - ; _ g.g.+.v.[ 3 3 <.3.3.3.3.a 3 k b.$.%.g.j., ; p Z A q.y.q.* ;                         ",
"              ; ; f y.y.4.2.V - ; ) k.k.b.b.[ ; - A 2.A 2.2.p ; 1 b.v.=.j.k., ; p 2.A r.y.q.& ;                         ",
"              ; ; f y.y.,.V C v v ' k.k.$.$.O.y t C Z B B B b y y $.$.=.j.k.v v n V C r.y.q.& ;                         ",
"              ; ; f y.y.i - e k.k.k.j.k.k.k.*.b.b.r - - - + } b.n.k.k.k.k.k.k.k.` * $ q.y.q.& ;                         ",
"              ; ; f y.y.d ; e k.k.k.k.k.k.k.*.b.b.r * * + O } b.b.k.k.k.k.k.k.k.` * & q.y.q.& ;                         ",
"              ; ; f y.y.d : e k.k.a.u.u.k.k.l.l.#.+.} } } } *.@.@.k.k.a.i.u.k.k.` - & q.y.q.& ;                         ",
"              ; ; f y.y.d ; e k.j.p.y.y.k.k.k.k.j.n.n.b.b.v.#.k.k.k.k.a.t.t.k.k.` * & q.y.q.& ;                         ",
"              ; ; f y.y.d ; e k.j.p.w.w.k.k.k.k.j.n.n.n.n.n.@.k.k.k.j.a.w.q.k.k.` ; & q.y.q.& ;                         ",
"              ; ; f y.y.d ; w y.t.J & $ y.0.p.k.k.k.k.k.k.k.k.k.k.w.t.P & @ t.w.;.* & q.t.q.& ;                         ",
"              ; ; f y.y.d ; w y.y.K ; * y.y.p.k.k.k.k.k.k.k.k.k.j.w.t.P ; = w.y.E * & q.y.q.& ;                         ",
"; ;           ; ; f y.y.d ; u y.y.X.[ [ K K / a.p.k.k.k.k.k.a.a.p.K K | [ { w.y.E ; & q.y.q.& ;                         ",
"; ;           ; ; g y.y.d ; w y.t.&.b.b.; ; K 0.0.k.k.k.j.k.i.t.w.& ; ] b.b.y.t.E * & q.y.q.& ;                         ",
"; ;           ; ; f y.y.d ; w y.t.&.b.b.= ; K y.0.k.k.k.k.k.i.t.t.# ; ] b.b.u.w.W * & q.t.q.& ;                         ",
"; ;           ; ; f y.y.4.3.V = - [ b.b.w.y.R - $ q.t.t.y.y.f ; , y.t.%.b.b.> ; l 2.A r.t.q.& ;                         ",
"; ;           : ; f y.y.4.2.A - ; [ b.b.t.t.R ; & w.w.t.y.y.f ; , y.t.&.b.b.> ; a <.A r.t.q.& ;                         ",
"; ;           ; ; f y.y.4.2.2.K K  .{ { Y R I K K 0.w.t.y.y.I K K Y Y ..[ [ L K L <.2.w.y.q.& ;                         ",
"; ;           ; ; f y.y.4.2.1.y.y.K ; ; ; ; K y.y.y.y.y.w.y.y.y.w.& ; ; ; & 0.t.:.A A r.t.q.& ;                         ",
"; ;           ; ; f y.y.1.A 3.y.y.K ; ; & & J t.y.y.y.w.y.y.y.y.0.@ & = ; & t.t.e.A A r.w.q.& ;                         ",
"              ; ; f y.y.w.w.q., 5 : ; ; w.w.w.w.y.1.3.3.2.2.e.t.y.w.0.P ; ; 5 < J r.0.w.t.w.& ;                         ",
"              ; ; f y.y.t.t.q.& ; ; ; ; y.y.t.y.y.3.2.2.2.A e.y.y.y.t.P ; ; ; ; h y.y.y.w.w.& ;                         ",
"              ; ; f y.y.q.Q W & ; ; ; ; w.w.w.e.e.V C C B B >.:.e.t.t.P ; ; ; ; f ;.;.w.w.q.& ;                         ",
"              ; ; f y.y.d * *     ; ; ; y.y.7.A 2.3 * ; ; - B A 2.t.t.P ; ;       * % q.y.w.& ;                       ; ",
"              ; ; f y.y.d ; ;     = = & y.t.7.A 2.3 ; ; ; - B A 3.y.y.P & =       ; & q.t.q.& ;                       ; ",
"                    d d       ; ; U q.;.y.y.R u u           5 5 u t.t.r.;.q., ; ;     d d i                           ; ",
"                    ; ;       ; ; R y.y.t.t.R ; ;           ; ; , y.y.y.y.y.: ; ;     ; ; ;                           ; ",
"                    ; ;       ; ; R y.0.w.r.Y ; ;           ; 2 3 r.r.w.y.y.: ; ;     ; ; ;                           ; ",
"                              ; ; R y.y.A A N ; ;           ; ; , A A 6.y.y.3 ; ;                                       ",
"                              ; ; R y.y.2.2.N ; ;           ; ; : 2.2.6.y.y., ; ;                                       ",
"                        ; ; > 9 9 m ,.^ a a p                     a a j ^ ^ 9 9 9 ; ;                                   ",
"                        ; ; 2 0 0 0 q 0 ; ; ;                     ; ; 8 0 0 0 0 9 ; ;                                   ",
"                        ; ; ; 0 0 0 0 0 ; ; ;                     ; ; 9 0 0 0 0 q ; ;                                   ",
"                                                                                                                        ",
"                                                                                                                        ",
"                                                                                                                        ",
"                                                                                                                        ",
"                                                                                                                        ",
"                                              ; ;           ; ; ;                                                       ",
"                                              ; ;           ; ; ;                                                       "
};
