/* XPM */
static char *_260ce31b9b541c9e4f1f0695c2f2456SqO6ZTgS8hyb9nUz[] = {
/* columns rows colors chars-per-pixel */
"61 50 71 1 ",
"  c #1E1D16",
". c #1A1919",
"X c #201F16",
"o c #242317",
"O c #262518",
"+ c #282719",
"@ c #2C2B1B",
"# c #302F1D",
"$ c #33321E",
"% c #272727",
"& c #2F2E21",
"* c #2B2B2B",
"= c #302F21",
"- c #353422",
"; c #383723",
": c #383724",
"> c #383727",
", c #393822",
"< c #383823",
"1 c #3B3A24",
"2 c #393826",
"3 c #3C3B25",
"4 c #3C3B26",
"5 c #3D3C27",
"6 c #3C3B29",
"7 c #3D3C2A",
"8 c #3E3D2A",
"9 c #3F3F2C",
"0 c gray19",
"q c #313131",
"w c #323232",
"e c gray20",
"r c #343434",
"t c #353535",
"y c #373737",
"u c gray22",
"i c #3C3C3C",
"p c gray24",
"a c #3F3F3F",
"s c #403F29",
"d c #403F2A",
"f c #403F2C",
"g c #41402B",
"h c #41402C",
"j c #41402D",
"k c #43422D",
"l c #44432E",
"z c #44432F",
"x c #454430",
"c c #414141",
"v c #434343",
"b c #444444",
"n c gray28",
"m c #484848",
"M c #4B4B4B",
"N c #4E4E4E",
"B c gray31",
"V c gray32",
"C c gray33",
"Z c gray34",
"A c gray35",
"S c #5B5B5B",
"D c #5D5D5D",
"F c #606060",
"G c gray38",
"H c gray39",
"J c #646464",
"K c #676767",
"L c #6A6A6A",
"P c #6D6D6D",
"I c #6F6F6F",
/* pixels */
"e*Mt%Mt*MLn%np%nLM*bp%banMc*av*pv*pm*uM*rDK*tneeZLteMteMt*Mt*",
"KtMKtMKtnLLpnKcvKPbcFMaFAMFMuFVuDVtSZtAAeAPDeZDeZPF0MFtMFeBF*",
"t%*t%*t%*et%%e%*rt*%e*%ee*e*%e*%ee%*e%e*%0tt%*e%*te%*e%*t%*e*",
"............................... .............................",
"  X o             o              .  XX            XX X  X  X ",
"X@-@9;@;o-O$@$;OO81@$@ @#oOOO-1@oO$$>8$#@@#O$@;-o=d$@$Xo-+X+ ",
"f,;@@@f1@h$@@OO6-@@@8>OO@16@o>1O-6;$@@>d$-8@+@O@8@@@=f@+O#d;@",
"@@OO91$+@$$$@8,-@oOOO@OO@@@oO@@OO@@o=6>@@@$;$$d$#@X@o+@o+@#OX",
"+o$;-Oo$;OO>@@,;@$@O$,@Oo+#;$$11#O@$;@oO;#X&-O;;$@-o@$$@oo@$;",
";@h$-@+Od$6-@8;Oo8,@o@@5h;66#@@-,#;8$$@+-6-8@$8#O@h$o@##88$z#",
"Oo=+f@8O@@1;@1,@6>@O@,6@=#@O>8@@@o@@;6&1X@$3-#3$#8-++@f$@-@@O",
"f;@8-o1;@@O@@@O8,@85@@@@oX>-@$-->6@-6@@,#@+@@@+@f-#8;@#@OoO8@",
"-+Ol,@@$;$O-;8@$91&@-@@O@@,,@OO+#@O>h#@#$;@O$38@>d;@#-+@O-@3;",
"O$$-@8;O+8@@g8@$&@O81@oO6-@6l>@5;@--#-3$o-8@;g;O@@+@d#@o@8+$f",
" @,$85$$o1@-;,$$@O$5@o>-@Oo*>$@$@@$@@@$@O@-@#;@O@++#-@@+@-+@-",
"8-,@=$8,@8@@@$,@O55$$OO>@o@;@@+Oo+#$;8$##@#+$@;-o$d$@$o+-@O$$",
"-$@O8->@@;-$@O@6$@-@8;O+@oO81OoO-1;-@-;8$-8O@@O@,@$$$8+O@Oo$h",
"oO@$,@o@$O+>#1-,$oOO@@OO,@@,-OOO#;@O#>--@@;$#=1-1+ +O$@o@8o$,",
"$@h$$OO@8@>-O-1$@@OO@$@o1181@1-@$+@#-;O@$#O#>+,,-@@O+$$O+31d$",
"@O-@8@8O=#4;@6$@+,-@@$@o@@-,@$-$,@-8$@O+>1&1&#3@@@g@O@$@o#$,$",
"6-@11o1-+@@#@5$@11&OO>,@OOO@-1,@#+&#->=-O=;3$$8$@6>@+@8$X@oo$",
"1@Ox-@@-;$o@@@@59@-;@-$@o OO$--o@>@-3-@3@O@@#@@#6-@>$@-$Oo O@",
"oo@6g,@$$$+$;>@;8;--$@@O@$@OO$@@#;+>f@@$$$@O$;-@61$;$$+++##@O",
"1,-@-$51@9@@#8;+>8;@$@o@$$@,,@$$+o+-88#@$$$@,;5$@88@$$O+#$@@5",
">$@O>>1&@1;@@@@>@-;@1$O@@oo,3$OO&>$$#;;1$&6+@@@$-@>$#1OO@@X@g",
"oO@@1@+@$+@>#-#,-oO+-$OoOoO$$,@ @;$@@->;@-1@@&-$6+X@@;@OO@X@$",
"$@8--Oo#8@--@>,$@@Oo+$@OoO@+o-@O@oO@->@+#@O-;@1,#@@O@@$Oooo@O",
"@@1@6@1o-#8;O>;#+1;O@$#@,@+Oo  #;@-8-@OO>1@>=@;$@@8@@@$@->+@o",
"-@@>1O8@O@@$$g>O-6-+o-;>8@O;1=X@$@---5#$@>-8@$h$O>6@o@>$18O@1",
"8#@l-O#1$$o@@@@>6==$@;;@+@+;h3+o=#@@1-@5+O@$$@$$61@-$@1$O@+@8",
"O@@6$,-O@5@$$$+13$1>$@@OOoOO@$@o;>@>9@@$$$@o$$&@8>$6$#o@OOX+O",
" $,@-9;@o8@$$g>+1d#@$@O@Oo@-@O##+Oo-91#@$$$O,18$@81@$;OO+OO#-",
"-$;@8;>,@1@@@@--@1>@3$o@@@$,-$,,@--$=1->$@>O@@$$&#8$$1oO#@@$8",
"6;$@@$8$@6-@@&@1$ O+>-+O+$>O@$$o@5-@@-;6@;8@@@-@8+ @@1@@O@;#X",
"oOO@8;@O@@$1@11-@@OOO$+OO>d-oOOOOoO@-6@O@@@-1@8,#@OOO@@oO@88+",
"@O1;@oo$5@@-O--$@>-+@$#@@OO-$oo$$@$1$@o@,1O-&@,$$@3@O-$@&&o@;",
"$@8@1@;o8@8-@9,O@6>+o@$1h>+1-@@$-@-1--@@@1;g@-8@O-9@o+;$88@@d",
"@@@&8@g@O@$,@-$-8-@@@61@o@O+$,$@@@@@->-8OO@$-@$,18@&@@8$O++o+",
"h;$9>@$,@@O@@OO6-$g8$oO@+XO$$@$$>8$,6@@,-@@O@@O@8@>z,@X@@oo@;",
" @$@95@$O$@$$$-@@81@1@o@#@@$$o@$oO$@>h1@@+$@,@--@#d$#1oO$@@@$",
"oOO+8;@O@@--@@@8;oO@1;@o#@$$@+@@ooOO-8$O@@@;;@O&8@X@@8@+O$O$#",
"@O1;#oo$,@@-@91$@OOoo@Oo,$+@$$,d$@&1$@oO;;o&--9;#@O+o+@o@5@$@",
"$@f&,@#O8$8-O@-,@1@O-;@@O $$@@O#-@>1$-@@&1;9@O-,$@;O@$$@@ o$$",
"@+@@f+9@o@$,@8,oO85+ @$6-O@$$$$@@@O@-1-8oO@;$-8@o&9-oo-$8O+$$",
"h;@h-o$,$@o@@$;$8;@@@51@OO@$$$$$>6@38@@,$@@O@$$,;8@@@$g$O+O@$",
"@O+h,$@@$,+$$@O8;$11$++@O$,@OOo@@@o-g$@@$,$@$@@@h$-f$@O@++,;O",
"o$;#O8,OO9$@;h$@53+@$$@o$g,@@@$8>@,-@$8$o$8@$58@;g$+$$#@O,h$+",
" Xo;OO$@@,$$#@@@@#$@@+@@@@@OOOO@$$@$$$@$-$$,$@$;$@$$$$,$@@#$+",
"@@@@@@@;O,+$@$$@@81@;@X#$o@,$@Ooo@$$;d$$$@-@$@;$O-g;@;OO$@o$3",
"x3,@o@h3$h$o@Oo8-O@@8>@o+oO81OO+18;-+O1z$;8+O@o@8@O@$h@@o+o@x"
};
